<svg width="37" height="36" viewBox="0 0 37 36" fill="none" xmlns="http://www.w3.org/2000/svg">
<g id="ph:shopping-cart-simple-thin">
<path id="Vector" d="M14.875 30.4375C14.875 30.7713 14.776 31.0975 14.5906 31.375C14.4052 31.6525 14.1416 31.8688 13.8333 31.9965C13.5249 32.1243 13.1856 32.1577 12.8583 32.0926C12.5309 32.0275 12.2303 31.8667 11.9943 31.6307C11.7583 31.3947 11.5975 31.0941 11.5324 30.7667C11.4673 30.4394 11.5007 30.1001 11.6285 29.7917C11.7562 29.4834 11.9725 29.2198 12.25 29.0344C12.5275 28.849 12.8537 28.75 13.1875 28.75C13.6351 28.75 14.0643 28.9278 14.3807 29.2443C14.6972 29.5607 14.875 29.9899 14.875 30.4375ZM27.8125 28.75C27.4787 28.75 27.1525 28.849 26.875 29.0344C26.5975 29.2198 26.3812 29.4834 26.2535 29.7917C26.1257 30.1001 26.0923 30.4394 26.1574 30.7667C26.2225 31.0941 26.3833 31.3947 26.6193 31.6307C26.8553 31.8667 27.1559 32.0275 27.4833 32.0926C27.8106 32.1577 28.1499 32.1243 28.4583 31.9965C28.7666 31.8688 29.0302 31.6525 29.2156 31.375C29.401 31.0975 29.5 30.7713 29.5 30.4375C29.5 29.9899 29.3222 29.5607 29.0057 29.2443C28.6893 28.9278 28.2601 28.75 27.8125 28.75ZM33.6625 10.3422L29.95 23.3359C29.7754 23.9215 29.4175 24.4357 28.929 24.8027C28.4404 25.1698 27.847 25.3704 27.2359 25.375H13.7641C13.153 25.3704 12.5596 25.1698 12.071 24.8027C11.5825 24.4357 11.2246 23.9215 11.05 23.3359L7.35156 10.3562V10.3281L5.97344 5.53281C5.93745 5.41524 5.86482 5.31225 5.76616 5.23889C5.66749 5.16552 5.54795 5.12561 5.425 5.125H3.0625C2.91332 5.125 2.77024 5.06574 2.66475 4.96025C2.55926 4.85476 2.5 4.71168 2.5 4.5625C2.5 4.41332 2.55926 4.27024 2.66475 4.16475C2.77024 4.05926 2.91332 4 3.0625 4H5.425C5.79257 4.00038 6.15013 4.11977 6.44418 4.34031C6.73823 4.56085 6.95297 4.87068 7.05625 5.22344L8.30781 9.625H33.1141C33.2016 9.62387 33.2881 9.64371 33.3664 9.68286C33.4447 9.722 33.5125 9.77931 33.5641 9.85C33.6175 9.91882 33.6541 9.99909 33.6712 10.0845C33.6883 10.1699 33.6853 10.2581 33.6625 10.3422ZM32.3687 10.75H8.63125L12.1328 23.0266C12.2361 23.3793 12.4508 23.6891 12.7449 23.9097C13.0389 24.1302 13.3965 24.2496 13.7641 24.25H27.2359C27.6035 24.2496 27.9611 24.1302 28.2551 23.9097C28.5492 23.6891 28.7639 23.3793 28.8672 23.0266L32.3687 10.75Z" fill="#F8E4BE" stroke="#F8E4BE" stroke-width="0.5"/>
<path id="Vector_2" d="M24.2742 13.8981C23.8875 13.5353 23.4194 13.2705 22.9093 13.1258C22.3992 12.9812 21.8618 12.9609 21.3422 13.0667C20.1168 13.2827 18.9909 13.8801 18.125 14.7737C17.2281 15.6398 16.6287 16.7679 16.4131 17.9959C16.3081 18.5147 16.3288 19.0511 16.4734 19.5603C16.618 20.0695 16.8824 20.5367 17.2444 20.9229C17.5468 21.2129 17.904 21.4398 18.2951 21.5901C18.6862 21.7405 19.1033 21.8113 19.5221 21.7985C20.991 21.7394 22.3793 21.1114 23.3936 20.0473C25.3313 18.109 25.7249 15.3493 24.2742 13.8981ZM16.9001 18.0697C17.1008 16.9471 17.6499 15.9161 18.4694 15.123C19.2611 14.3018 20.2927 13.7524 21.416 13.5537C21.6082 13.5247 21.8022 13.5099 21.9965 13.5095C22.3505 13.4972 22.7035 13.5557 23.0346 13.6816C23.3657 13.8074 23.6684 13.9981 23.9249 14.2424C23.9455 14.2614 23.9637 14.2829 23.979 14.3064C23.6726 14.572 23.3187 14.7773 22.9361 14.9115C22.3834 15.1102 21.8848 15.4354 21.48 15.8609C21.0544 16.2657 20.7293 16.7643 20.5305 17.317C20.3584 17.8097 20.0698 18.2536 19.6893 18.6108C19.3307 18.9896 18.8873 19.2779 18.3956 19.452C17.9726 19.6026 17.5808 19.8294 17.2395 20.121C16.8888 19.4984 16.7686 18.7721 16.9001 18.0697ZM23.0443 19.698C21.298 21.4443 18.8531 21.8379 17.5937 20.5785C17.5728 20.5584 17.5531 20.537 17.5347 20.5146C17.8435 20.2497 18.1988 20.0446 18.5825 19.9095C19.1336 19.7076 19.6316 19.3829 20.0386 18.9601C20.4632 18.5544 20.7881 18.0561 20.988 17.504C21.1602 17.0113 21.4488 16.5674 21.8293 16.2102C22.1865 15.8297 22.6303 15.5411 23.123 15.369C23.544 15.2151 23.934 14.9869 24.2742 14.695C25.0809 16.0291 24.6038 18.1386 23.0443 19.698Z" fill="#F8E4BE" stroke="#F8E4BE" stroke-width="0.5"/>
</g>
</svg>
