<svg width="156" height="26" viewBox="0 0 156 26" fill="none" xmlns="http://www.w3.org/2000/svg">
<g id="Group 54">
<g id="Group 53">
<path id="Vector" d="M154.162 5.98474C153.399 6.34207 152.589 6.57674 151.76 6.681C152.634 6.12805 153.288 5.25782 153.6 4.23247C152.78 4.74884 151.881 5.11072 150.944 5.30648C150.315 4.5939 149.48 4.12132 148.571 3.9622C147.662 3.80308 146.728 3.96633 145.915 4.42658C145.103 4.88683 144.456 5.61829 144.077 6.50724C143.698 7.3962 143.607 8.39283 143.818 9.34222C142.155 9.25403 140.528 8.79677 139.043 8.00014C137.558 7.20351 136.248 6.08532 135.198 4.71815C134.826 5.39372 134.631 6.16169 134.632 6.94342C134.632 8.47772 135.37 9.83319 136.492 10.6268C135.828 10.6047 135.179 10.4149 134.598 10.0734V10.1284C134.598 11.1503 134.932 12.1406 135.544 12.9315C136.155 13.7224 137.007 14.2652 137.953 14.4678C137.337 14.6446 136.69 14.6706 136.063 14.544C136.33 15.4236 136.85 16.1928 137.551 16.744C138.251 17.2952 139.097 17.6008 139.97 17.6179C139.103 18.3389 138.109 18.8718 137.047 19.1863C135.985 19.5007 134.874 19.5906 133.779 19.4506C135.691 20.7515 137.916 21.4422 140.189 21.4399C147.882 21.4399 152.089 14.6964 152.089 8.84807C152.089 8.6576 152.084 8.46502 152.076 8.27667C152.895 7.65043 153.602 6.87466 154.163 5.9858L154.162 5.98474Z" fill="white"/>
</g>
<g id="Group 50">
<path id="Vector_2" d="M12 2.11612C6.477 2.11612 2 6.85341 2 12.6975C2 17.9787 5.657 22.3562 10.438 23.1509V15.7555H7.898V12.6975H10.438V10.3664C10.438 7.71473 11.93 6.25027 14.215 6.25027C15.309 6.25027 16.453 6.4566 16.453 6.4566V9.05963H15.193C13.95 9.05963 13.563 9.87545 13.563 10.7124V12.6975H16.336L15.893 15.7555H13.563V23.1509C18.343 22.3573 22 17.9776 22 12.6975C22 6.85341 17.523 2.11612 12 2.11612Z" fill="white"/>
</g>
<g id="Group 51">
<path id="Vector_3" d="M56 2.11612C58.717 2.11612 59.056 2.1267 60.122 2.17961C61.187 2.23251 61.912 2.40922 62.55 2.67164C63.21 2.94041 63.766 3.30441 64.322 3.89168C64.8305 4.42064 65.224 5.06048 65.475 5.7667C65.722 6.44073 65.89 7.20894 65.94 8.33586C65.987 9.46383 66 9.82254 66 12.6975C66 15.5725 65.99 15.9312 65.94 17.0592C65.89 18.1861 65.722 18.9532 65.475 19.6283C65.2247 20.3349 64.8311 20.9749 64.322 21.5033C63.822 22.0412 63.2173 22.4575 62.55 22.7234C61.913 22.9847 61.187 23.1625 60.122 23.2154C59.056 23.2651 58.717 23.2789 56 23.2789C53.283 23.2789 52.944 23.2683 51.878 23.2154C50.813 23.1625 50.088 22.9847 49.45 22.7234C48.7823 22.4583 48.1775 22.0419 47.678 21.5033C47.1694 20.9745 46.7759 20.3346 46.525 19.6283C46.277 18.9543 46.11 18.1861 46.06 17.0592C46.013 15.9312 46 15.5725 46 12.6975C46 9.82254 46.01 9.46383 46.06 8.33586C46.11 7.20788 46.277 6.44179 46.525 5.7667C46.7752 5.06005 47.1688 4.42003 47.678 3.89168C48.1777 3.35333 48.7824 2.93695 49.45 2.67164C50.088 2.40922 50.812 2.23251 51.878 2.17961C52.944 2.12988 53.283 2.11612 56 2.11612ZM56 7.40681C54.6739 7.40681 53.4021 7.96422 52.4645 8.95642C51.5268 9.94862 51 11.2943 51 12.6975C51 14.1007 51.5268 15.4464 52.4645 16.4386C53.4021 17.4308 54.6739 17.9882 56 17.9882C57.3261 17.9882 58.5979 17.4308 59.5355 16.4386C60.4732 15.4464 61 14.1007 61 12.6975C61 11.2943 60.4732 9.94862 59.5355 8.95642C58.5979 7.96422 57.3261 7.40681 56 7.40681ZM62.5 7.14228C62.5 6.79148 62.3683 6.45506 62.1339 6.20701C61.8995 5.95896 61.5815 5.8196 61.25 5.8196C60.9185 5.8196 60.6005 5.95896 60.3661 6.20701C60.1317 6.45506 60 6.79148 60 7.14228C60 7.49307 60.1317 7.8295 60.3661 8.07755C60.6005 8.3256 60.9185 8.46495 61.25 8.46495C61.5815 8.46495 61.8995 8.3256 62.1339 8.07755C62.3683 7.8295 62.5 7.49307 62.5 7.14228ZM56 9.52309C56.7956 9.52309 57.5587 9.85754 58.1213 10.4529C58.6839 11.0482 59 11.8556 59 12.6975C59 13.5394 58.6839 14.3468 58.1213 14.9422C57.5587 15.5375 56.7956 15.8719 56 15.8719C55.2044 15.8719 54.4413 15.5375 53.8787 14.9422C53.3161 14.3468 53 13.5394 53 12.6975C53 11.8556 53.3161 11.0482 53.8787 10.4529C54.4413 9.85754 55.2044 9.52309 56 9.52309Z" fill="white"/>
</g>
<g id="Group 52">
<path id="Vector_4" d="M109.543 6.87577C110 8.76138 110 12.6977 110 12.6977C110 12.6977 110 16.6339 109.543 18.5195C109.289 19.5618 108.546 20.3819 107.605 20.6591C105.896 21.1628 100 21.1628 100 21.1628C100 21.1628 94.107 21.1628 92.395 20.6591C91.45 20.3776 90.708 19.5586 90.457 18.5195C90 16.6339 90 12.6977 90 12.6977C90 12.6977 90 8.76138 90.457 6.87577C90.711 5.83351 91.454 5.01345 92.395 4.73622C94.107 4.23254 100 4.23254 100 4.23254C100 4.23254 105.896 4.23254 107.605 4.73622C108.55 5.01768 109.292 5.83668 109.543 6.87577ZM98 16.4011L104 12.6977L98 8.99417V16.4011Z" fill="white"/>
</g>
</g>
</svg>
